HIERARCHY
ROOT Hips
{
  OFFSET 34.4349 98.8421 15.0715
  CHANNELS 6 Xposition Yposition Zposition Zrotation Xrotation Yrotation
  JOINT ToSpine
  {
    OFFSET -0.0105055 1.38907 -7.13956
    CHANNELS 3 Zrotation Xrotation Yrotation
    JOINT Spine
    {
      OFFSET 0.0105055 10 1
      CHANNELS 3 Zrotation Xrotation Yrotation
      JOINT Spine1
      {
        OFFSET 0 12 1.60637
        CHANNELS 3 Zrotation Xrotation Yrotation
        JOINT Neck
        {
          OFFSET 0 27 2.26658
          CHANNELS 3 Zrotation Xrotation Yrotation
          JOINT Head
          {
            OFFSET 0 9 2.12705
            CHANNELS 3 Zrotation Xrotation Yrotation
            End Site
            {
              OFFSET 0 11 2
            }
          }
        }
        JOINT LeftShoulder
        {
          OFFSET 8 19.6109 2.86452
          CHANNELS 3 Zrotation Xrotation Yrotation
          JOINT LeftArm
          {
            OFFSET 12 1 0.681055
            CHANNELS 3 Zrotation Xrotation Yrotation
            JOINT LeftForeArm
            {
              OFFSET 19 0 -1.52608
              CHANNELS 3 Zrotation Xrotation Yrotation
              JOINT LeftHand
              {
                OFFSET 23 0 0
                CHANNELS 3 Zrotation Xrotation Yrotation
                End Site
                {
                  OFFSET 10 0 0
                }
              }
            }
          }
        }
        JOINT RightShoulder
        {
          OFFSET -8 19.6109 2.86452
          CHANNELS 3 Zrotation Xrotation Yrotation
          JOINT RightArm
          {
            OFFSET -12 1 0.681055
            CHANNELS 3 Zrotation Xrotation Yrotation
            JOINT RightForeArm
            {
              OFFSET -19 0 -1.52608
              CHANNELS 3 Zrotation Xrotation Yrotation
              JOINT RightHand
              {
                OFFSET -23 0 0
                CHANNELS 3 Zrotation Xrotation Yrotation
                End Site
                {
                  OFFSET -10 0 0
                }
              }
            }
          }
        }
      }
    }
  }
  JOINT LeftUpLeg
  {
    OFFSET 9 -7.17245 0
    CHANNELS 3 Zrotation Xrotation Yrotation
    JOINT LeftLeg
    {
      OFFSET 0 -44.1113 0
      CHANNELS 3 Zrotation Xrotation Yrotation
      JOINT LeftFoot
      {
        OFFSET 0 -36.1829 0
        CHANNELS 3 Zrotation Xrotation Yrotation
        JOINT LeftToeBase
        {
          OFFSET 0 -4.84184 13
          CHANNELS 3 Zrotation Xrotation Yrotation
          End Site
          {
            OFFSET 0 1 6
          }
        }
      }
    }
  }
  JOINT RightUpLeg
  {
    OFFSET -9 -7.17245 0
    CHANNELS 3 Zrotation Xrotation Yrotation
    JOINT RightLeg
    {
      OFFSET 0 -44.0551 0
      CHANNELS 3 Zrotation Xrotation Yrotation
      JOINT RightFoot
      {
        OFFSET 0 -36.1469 0
        CHANNELS 3 Zrotation Xrotation Yrotation
        JOINT RightToeBase
        {
          OFFSET 0 -4.92256 13
          CHANNELS 3 Zrotation Xrotation Yrotation
          End Site
          {
            OFFSET 0 1 6
          }
        }
      }
    }
  }
}
MOTION
Frames:	12
Frame Time:	0.0333333
34.3822 98.854 15.0747 1.45764 -6.12143 0.884772 0 0 0 -1.05822 3.52854 -0.224438 0.13874 6.6805 -0.11761 3.20271 -14.6106 -2.23445 -3.08246 6.27851 -0.703807 -29.9614 5.88098 -12.7276 -43.7889 25.7188 -1.89924 -10.5874 -10.3364 -15.2727 7.8112 0.123068 1.80006 28.0579 5.97839 13.8813 46.3365 18.1985 4.40359 7.65096 -2.59627 13.2983 -0.330605 -0.0145681 4.55211 2.85414 6.37341 8.85402 -2.05337 8.46743 -7.06383 1.08893 -5.17601 0.0522139 -0.998551 -0.924825 2.04425 -4.504 5.18231 -8.79573 0.54797 8.43339 12.6212 -2.42512 -5.96983 -0.125864 -0.135553 -2.74335 -0.312587 
34.2226 98.8884 15.0651 1.31017 -5.84811 1.31374 0 0 0 -1.55114 3.19131 -0.35016 0.840094 6.7772 -0.441012 3.0161 -14.7048 -2.19561 -3.03683 6.3507 -0.711445 -30.1583 5.92969 -12.774 -43.6364 25.9625 -1.9094 -10.5514 -10.4293 -15.4054 7.55718 0.101589 1.54002 27.7917 5.96947 13.9861 46.5495 18.0086 4.45582 7.44884 -1.99684 13.3124 -0.344405 -0.0145636 4.76706 3.30764 5.84767 9.10735 -2.18958 8.82924 -7.91365 1.11435 -4.7902 0.0521832 -1.27437 -1.63905 2.51757 -4.08479 5.23925 -8.55625 0.580243 7.72183 11.8522 -2.85196 -5.46697 -0.136462 -0.0732752 -3.26785 -0.652442 
34.2168 98.8867 15.0032 1.3114 -5.72282 1.27497 0 0 0 -1.56832 3.26981 -0.338036 0.850894 6.58093 -0.432354 3.01653 -14.7287 -2.22476 -2.97982 6.2368 -0.757852 -30.1266 5.94309 -12.8243 -43.527 26.9259 -1.92576 -10.6837 -11.3552 -15.7919 7.6499 0.0944345 1.41451 27.9148 5.95544 13.885 46.4626 18.3478 4.46172 7.59314 -2.80251 13.5011 -0.396409 -0.0145653 4.68841 3.23098 5.76612 8.98456 -2.05688 8.63305 -7.744 0.948567 -4.98116 0.0521981 -1.17087 -0.971184 2.43599 -4.10483 5.03107 -8.56407 0.585159 7.74403 11.8718 -2.90978 -5.37014 -0.136234 -0.205941 -3.45907 -0.297381 
34.2041 98.8936 14.995 1.36528 -5.66267 1.27934 0 0 0 -1.69863 3.24109 -0.329304 0.984044 6.55531 -0.451879 2.71458 -14.8077 -2.1444 -2.65466 6.32976 -0.821538 -30.3638 5.9677 -12.787 -43.2954 27.4356 -1.97078 -10.6303 -11.7969 -16.1526 7.25154 0.110544 1.74359 27.8907 5.9635 13.92 46.4273 18.426 4.43837 7.59136 -2.77609 13.5097 -0.37642 -0.0162969 4.71483 3.1435 5.72823 8.92408 -2.02419 8.51444 -7.49809 1.19538 -4.71155 0.0521773 -1.01111 -1.448 1.94764 -4.15674 4.9221 -8.57676 0.610654 7.81832 11.9146 -3.16632 -5.20039 -0.143409 -0.159797 -3.65762 -0.497444 
34.1767 98.8931 14.9955 1.30676 -5.67725 1.37785 0 0 0 -1.5882 3.24284 -0.378385 0.822439 6.60679 -0.468497 2.92471 -14.867 -2.18424 -2.77955 6.34342 -0.790292 -30.2232 5.95969 -12.8266 -43.2195 28.0118 -1.95765 -10.5691 -12.2885 -16.5611 7.06177 0.111513 1.80564 27.917 6.00976 14.0403 46.6013 18.2304 4.35809 7.57483 -2.8094 13.5107 -0.744397 -0.0316035 4.83915 3.24806 5.7015 8.99354 -2.0596 8.59311 -7.64826 1.14484 -4.80512 0.0521844 -0.983951 -1.40305 1.89624 -4.061 5.03254 -8.52735 0.571786 7.67876 11.8705 -2.71873 -5.39907 -0.126937 -0.111476 -3.22241 -0.523468 
34.185 98.8847 14.9526 1.30336 -5.67067 1.24987 0 0 0 -1.55197 3.37783 -0.280782 0.764646 6.47574 -0.371466 2.85875 -14.8524 -2.24088 -2.82264 6.30655 -0.842973 -30.5738 6.03626 -12.8802 -42.8491 28.6494 -1.90229 -10.5879 -13.0259 -16.9788 7.15484 0.0970945 1.55799 27.8039 5.93054 13.8677 46.8057 18.4252 4.40406 7.88554 -3.77193 13.4698 -1.43855 -0.0606809 4.83656 3.20718 5.67561 8.93669 -1.95874 8.59515 -7.80271 1.11347 -4.65809 0.0521733 -1.32183 -1.48761 2.66406 -4.07263 5.02654 -8.52542 0.686137 7.57132 11.8335 -3.58788 -4.86556 -0.152071 -0.250528 -3.9904 -0.310874 
34.2063 98.9045 14.9657 1.31607 -5.64436 1.32079 0 0 0 -1.63703 3.31916 -0.324107 0.913842 6.49887 -0.428198 2.727 -14.8723 -2.15726 -2.73558 6.44624 -0.807366 -30.8437 6.00728 -12.6852 -42.5841 28.774 -2.06802 -10.6719 -13.4905 -17.0977 7.65953 0.0805576 1.20108 27.8365 5.9795 13.9926 46.7923 18.2868 4.40028 7.88905 -3.68274 13.3852 -1.48326 -0.0598406 4.61449 3.16309 5.73104 8.88468 -1.95362 8.37262 -7.65718 1.14836 -4.5285 0.0521638 -1.18361 -1.68688 2.29184 -4.16379 4.87864 -8.63955 0.656275 7.88649 11.989 -2.70737 -5.54263 -0.131533 -0.126536 -2.96165 -0.401086 
34.1675 98.883 14.9813 1.31393 -5.67954 1.37556 0 0 0 -1.71667 3.26789 -0.338566 0.871405 6.5704 -0.431723 3.04573 -14.7284 -2.18032 -2.97858 6.42134 -0.706817 -30.5829 5.95835 -12.6668 -42.6754 28.5085 -2.22724 -10.6429 -13.3031 -16.9939 7.69059 0.0745339 1.10802 28.1038 6.05756 14.0853 46.6982 18.1658 4.20863 7.90273 -3.56449 13.3048 -1.62771 -0.0714354 5.02796 3.23674 5.79674 8.95706 -2.05065 8.37444 -7.70997 1.17095 -4.83672 0.0475518 -1.04316 -1.16771 2.09169 -4.0958 4.92976 -8.58655 0.574436 7.9 11.7266 -2.83091 -5.67234 -0.140288 -0.276414 -2.92989 0.0625887 
34.1688 98.8911 15.0059 1.33474 -5.72632 1.51226 0 0 0 -1.80345 3.17487 -0.342119 1.01144 6.7273 -0.482989 2.63785 -14.6382 -2.08337 -2.65828 6.37562 -0.77212 -31.0202 6.04339 -12.7058 -42.3363 28.6585 -2.26868 -10.6886 -13.6036 -17.1056 7.61842 0.0545065 0.818914 28.0249 5.98851 13.9262 46.6705 18.1918 4.23192 7.87492 -3.32807 13.2456 -1.73233 -0.0758346 5.00948 3.27326 5.77173 9.005 -2.03825 8.56571 -7.91256 0.877539 -4.92628 0.0375284 -0.979907 -1.00412 1.98485 -4.01594 5.13219 -8.47692 0.49396 7.65096 11.5569 -2.71027 -5.44965 -0.128861 -0.249198 -3.29502 -0.120634 
34.2027 98.9018 15.0014 1.31687 -5.63669 1.46934 0 0 0 -1.62549 3.10334 -0.355839 0.760108 6.64791 -0.430491 2.72613 -14.4249 -2.03032 -2.71624 6.34288 -0.688611 -31.1046 6.07265 -12.7471 -42.2704 29.0575 -2.1067 -10.5897 -13.6145 -17.2946 7.72741 0.0701809 1.03822 28.1305 6.03759 14.0151 46.7683 18.1281 4.01664 7.80497 -3.52742 13.4112 -1.59146 -0.067735 4.87832 3.22044 5.70168 8.94125 -2.00973 8.44714 -7.81352 1.18816 -4.64462 0.0481254 -1.07388 -1.47048 2.08871 -4.08759 4.92694 -8.54906 0.57208 7.87343 11.6904 -2.51966 -5.69924 -0.125468 -0.138999 -2.6904 -0.289689 
34.2143 98.8802 15.0365 1.28998 -5.82576 1.51489 0 0 0 -1.61814 3.18014 -0.36758 0.749122 6.75849 -0.444048 2.80636 -14.3935 -2.05344 -2.88165 6.35082 -0.650307 -30.9786 6.04311 -12.7229 -42.467 28.3764 -2.27452 -10.2992 -12.2485 -16.9122 7.80405 0.0837328 1.22893 28.2088 6.04736 14.0046 46.7554 18.4988 3.95537 8.06391 -4.52943 13.511 -1.95865 -0.0820134 4.79368 3.21166 5.95321 8.93244 -1.94088 8.41283 -7.7158 0.953479 -5.06095 0.0422744 -1.00377 -0.905056 2.06452 -4.02905 5.21658 -8.53428 0.524286 7.77968 11.5608 -2.73818 -5.6992 -0.136243 -0.200199 -2.92599 -0.167949 
34.219 98.8914 15.074 1.3394 -5.77976 1.56988 0 0 0 -1.64671 2.9888 -0.402196 0.67138 6.88591 -0.446586 2.89151 -14.3637 -2.05581 -2.79844 6.30227 -0.661635 -30.7914 6.01228 -12.7212 -42.6655 27.8955 -2.29219 -10.3807 -12.216 -16.7274 7.40805 0.0884982 1.3665 28.318 6.07495 14.0298 46.8431 18.3893 3.83193 8.06545 -4.67833 13.5442 -1.97799 -0.0826037 4.78314 3.15843 5.97311 8.9049 -1.96036 8.29192 -7.83331 0.954766 -4.82811 0.0401999 -1.09869 -1.2302 2.20573 -4.13247 5.09652 -8.62437 0.548746 8.00061 11.6425 -2.61578 -5.87813 -0.134349 -0.222186 -2.62878 -0.0217596 
